<?xml version="1.0" standalone="no"?><svg xmlns="http://www.w3.org/2000/svg" viewBox="0 0 1440 320"><path fill="#0099ff" fill-opacity="1" d="M0,160L6.2,181.3C12.3,203,25,245,37,240C49.2,235,62,181,74,165.3C86.2,149,98,171,111,176C123.1,181,135,171,148,176C160,181,172,203,185,186.7C196.9,171,209,117,222,128C233.8,139,246,213,258,240C270.8,267,283,245,295,240C307.7,235,320,245,332,229.3C344.6,213,357,171,369,160C381.5,149,394,171,406,181.3C418.5,192,431,192,443,197.3C455.4,203,468,213,480,186.7C492.3,160,505,96,517,101.3C529.2,107,542,181,554,181.3C566.2,181,578,107,591,69.3C603.1,32,615,32,628,53.3C640,75,652,117,665,160C676.9,203,689,245,702,234.7C713.8,224,726,160,738,122.7C750.8,85,763,75,775,85.3C787.7,96,800,128,812,128C824.6,128,837,96,849,69.3C861.5,43,874,21,886,37.3C898.5,53,911,107,923,149.3C935.4,192,948,224,960,213.3C972.3,203,985,149,997,128C1009.2,107,1022,117,1034,149.3C1046.2,181,1058,235,1071,229.3C1083.1,224,1095,160,1108,154.7C1120,149,1132,203,1145,240C1156.9,277,1169,299,1182,266.7C1193.8,235,1206,149,1218,122.7C1230.8,96,1243,128,1255,122.7C1267.7,117,1280,75,1292,74.7C1304.6,75,1317,117,1329,133.3C1341.5,149,1354,139,1366,122.7C1378.5,107,1391,85,1403,101.3C1415.4,117,1428,171,1434,197.3L1440,224L1440,0L1433.8,0C1427.7,0,1415,0,1403,0C1390.8,0,1378,0,1366,0C1353.8,0,1342,0,1329,0C1316.9,0,1305,0,1292,0C1280,0,1268,0,1255,0C1243.1,0,1231,0,1218,0C1206.2,0,1194,0,1182,0C1169.2,0,1157,0,1145,0C1132.3,0,1120,0,1108,0C1095.4,0,1083,0,1071,0C1058.5,0,1046,0,1034,0C1021.5,0,1009,0,997,0C984.6,0,972,0,960,0C947.7,0,935,0,923,0C910.8,0,898,0,886,0C873.8,0,862,0,849,0C836.9,0,825,0,812,0C800,0,788,0,775,0C763.1,0,751,0,738,0C726.2,0,714,0,702,0C689.2,0,677,0,665,0C652.3,0,640,0,628,0C615.4,0,603,0,591,0C578.5,0,566,0,554,0C541.5,0,529,0,517,0C504.6,0,492,0,480,0C467.7,0,455,0,443,0C430.8,0,418,0,406,0C393.8,0,382,0,369,0C356.9,0,345,0,332,0C320,0,308,0,295,0C283.1,0,271,0,258,0C246.2,0,234,0,222,0C209.2,0,197,0,185,0C172.3,0,160,0,148,0C135.4,0,123,0,111,0C98.5,0,86,0,74,0C61.5,0,49,0,37,0C24.6,0,12,0,6,0L0,0Z"></path></svg>