<?xml version="1.0" standalone="no"?><svg xmlns="http://www.w3.org/2000/svg" viewBox="0 0 1440 320"><path fill="#0099ff" fill-opacity="1" d="M0,96L6.2,117.3C12.3,139,25,181,37,218.7C49.2,256,62,288,74,256C86.2,224,98,128,111,106.7C123.1,85,135,139,148,170.7C160,203,172,213,185,229.3C196.9,245,209,267,222,266.7C233.8,267,246,245,258,218.7C270.8,192,283,160,295,133.3C307.7,107,320,85,332,101.3C344.6,117,357,171,369,208C381.5,245,394,267,406,277.3C418.5,288,431,288,443,256C455.4,224,468,160,480,122.7C492.3,85,505,75,517,58.7C529.2,43,542,21,554,48C566.2,75,578,149,591,160C603.1,171,615,117,628,106.7C640,96,652,128,665,144C676.9,160,689,160,702,165.3C713.8,171,726,181,738,176C750.8,171,763,149,775,128C787.7,107,800,85,812,106.7C824.6,128,837,192,849,202.7C861.5,213,874,171,886,165.3C898.5,160,911,192,923,192C935.4,192,948,160,960,154.7C972.3,149,985,171,997,154.7C1009.2,139,1022,85,1034,96C1046.2,107,1058,181,1071,176C1083.1,171,1095,85,1108,74.7C1120,64,1132,128,1145,154.7C1156.9,181,1169,171,1182,144C1193.8,117,1206,75,1218,80C1230.8,85,1243,139,1255,176C1267.7,213,1280,235,1292,245.3C1304.6,256,1317,256,1329,250.7C1341.5,245,1354,235,1366,218.7C1378.5,203,1391,181,1403,192C1415.4,203,1428,245,1434,266.7L1440,288L1440,320L1433.8,320C1427.7,320,1415,320,1403,320C1390.8,320,1378,320,1366,320C1353.8,320,1342,320,1329,320C1316.9,320,1305,320,1292,320C1280,320,1268,320,1255,320C1243.1,320,1231,320,1218,320C1206.2,320,1194,320,1182,320C1169.2,320,1157,320,1145,320C1132.3,320,1120,320,1108,320C1095.4,320,1083,320,1071,320C1058.5,320,1046,320,1034,320C1021.5,320,1009,320,997,320C984.6,320,972,320,960,320C947.7,320,935,320,923,320C910.8,320,898,320,886,320C873.8,320,862,320,849,320C836.9,320,825,320,812,320C800,320,788,320,775,320C763.1,320,751,320,738,320C726.2,320,714,320,702,320C689.2,320,677,320,665,320C652.3,320,640,320,628,320C615.4,320,603,320,591,320C578.5,320,566,320,554,320C541.5,320,529,320,517,320C504.6,320,492,320,480,320C467.7,320,455,320,443,320C430.8,320,418,320,406,320C393.8,320,382,320,369,320C356.9,320,345,320,332,320C320,320,308,320,295,320C283.1,320,271,320,258,320C246.2,320,234,320,222,320C209.2,320,197,320,185,320C172.3,320,160,320,148,320C135.4,320,123,320,111,320C98.5,320,86,320,74,320C61.5,320,49,320,37,320C24.6,320,12,320,6,320L0,320Z"></path></svg>