<svg width="1196" height="908" viewBox="0 0 1196 908" fill="none" xmlns="http://www.w3.org/2000/svg">
<g filter="url(#filter0_d_3_28)">
<path d="M1196 894L1163.4 838.125L1179.7 782.25L1065.6 726.375L1179.7 670.5L1033 614.625L1098.2 558.75L1065.6 502.875L1098.2 447L1114.5 391.125L1163.4 335.25L1081.9 279.375V223.5L1065.6 167.625V137L1114.5 167.625L1163.4 192H1179.7V211L1196 223.5V279.375V335.25V391.125V447V502.875V558.75V614.625V670.5V726.375V782.25V838.125V894Z" fill="white" fill-opacity="0.02" shape-rendering="crispEdges"/>
</g>
<g clip-path="url(#clip0_3_28)">
<g filter="url(#filter1_d_3_28)">
<path d="M1195.76 211.014L1110.33 168.811L1024.98 105.507L939.551 42.2027L854.205 21.1013L768.776 126.608L683.429 105.507L598 168.811L512.57 21.1013L427.224 147.71L341.795 84.4055L256.449 21.1013L171.019 126.608L85.6729 42.2027L0.243591 168.811V-0.000152588H85.6729L171.019 -0.000152588H256.449H341.795L427.224 -0.000152588H512.57H598L683.429 -0.000152588H768.776L854.205 -0.000152588H939.551L1029 75H1061V105.507L1195.76 211.014Z" fill="white" fill-opacity="0.02" shape-rendering="crispEdges"/>
</g>
</g>
<g clip-path="url(#clip1_3_28)">
<g filter="url(#filter2_d_3_28)">
<path d="M17.8 127L53.4 174.938L160.2 222.875L35.6 270.812L53.4 318.75L89 366.688L142.4 414.625L178 462.562L53.4 510.5L71.2 558.438L178 606.375L160.2 654.312L89 702.25L35.6 750.188L71.2 798.125L100.5 826L89 884.5L71.2 866L0 846.062V798.125L0 750.188V702.25V654.312V606.375V558.438V510.5V462.562V414.625V366.688L0 318.75V270.812V222.875V174.938V127H17.8Z" fill="white" fill-opacity="0.02" shape-rendering="crispEdges"/>
</g>
</g>
<g clip-path="url(#clip2_3_28)">
<g filter="url(#filter3_d_3_28)">
<path d="M104 854.5V832L149.5 762.2L224.25 810.8L299 875.6H373.75L448.5 843.2L523.25 778.4L598 875.6L672.75 746L747.5 810.8L822.25 908L897 762.2L971.75 891.8L1034.5 843.2H1106.5H1144L1089.5 891.8L1059 908H1046.5H971.75H897H822.25H747.5H672.75H598H523.25H448.5H373.75H299H224.25H149.5L104 854.5Z" fill="white" fill-opacity="0.02" shape-rendering="crispEdges"/>
</g>
</g>
<defs>
<filter id="filter0_d_3_28" x="1014" y="137" width="182" height="770" filterUnits="userSpaceOnUse" color-interpolation-filters="sRGB">
<feFlood flood-opacity="0" result="BackgroundImageFix"/>
<feColorMatrix in="SourceAlpha" type="matrix" values="0 0 0 0 0 0 0 0 0 0 0 0 0 0 0 0 0 0 127 0" result="hardAlpha"/>
<feOffset dx="-14" dy="8"/>
<feGaussianBlur stdDeviation="2.5"/>
<feComposite in2="hardAlpha" operator="out"/>
<feColorMatrix type="matrix" values="0 0 0 0 0 0 0 0 0 0 0 0 0 0 0 0 0 0 0.2 0"/>
<feBlend mode="normal" in2="BackgroundImageFix" result="effect1_dropShadow_3_28"/>
<feBlend mode="normal" in="SourceGraphic" in2="effect1_dropShadow_3_28" result="shape"/>
</filter>
<filter id="filter1_d_3_28" x="-2.75641" y="-0.00012207" width="1205.51" height="233.014" filterUnits="userSpaceOnUse" color-interpolation-filters="sRGB">
<feFlood flood-opacity="0" result="BackgroundImageFix"/>
<feColorMatrix in="SourceAlpha" type="matrix" values="0 0 0 0 0 0 0 0 0 0 0 0 0 0 0 0 0 0 127 0" result="hardAlpha"/>
<feOffset dx="2" dy="17"/>
<feGaussianBlur stdDeviation="2.5"/>
<feComposite in2="hardAlpha" operator="out"/>
<feColorMatrix type="matrix" values="0 0 0 0 0 0 0 0 0 0 0 0 0 0 0 0 0 0 0.2 0"/>
<feBlend mode="normal" in2="BackgroundImageFix" result="effect1_dropShadow_3_28"/>
<feBlend mode="normal" in="SourceGraphic" in2="effect1_dropShadow_3_28" result="shape"/>
</filter>
<filter id="filter2_d_3_28" x="0" y="127" width="190" height="771.5" filterUnits="userSpaceOnUse" color-interpolation-filters="sRGB">
<feFlood flood-opacity="0" result="BackgroundImageFix"/>
<feColorMatrix in="SourceAlpha" type="matrix" values="0 0 0 0 0 0 0 0 0 0 0 0 0 0 0 0 0 0 127 0" result="hardAlpha"/>
<feOffset dx="7" dy="9"/>
<feGaussianBlur stdDeviation="2.5"/>
<feComposite in2="hardAlpha" operator="out"/>
<feColorMatrix type="matrix" values="0 0 0 0 0 0 0 0 0 0 0 0 0 0 0 0 0 0 0.2 0"/>
<feBlend mode="normal" in2="BackgroundImageFix" result="effect1_dropShadow_3_28"/>
<feBlend mode="normal" in="SourceGraphic" in2="effect1_dropShadow_3_28" result="shape"/>
</filter>
<filter id="filter3_d_3_28" x="101" y="728" width="1054" height="180" filterUnits="userSpaceOnUse" color-interpolation-filters="sRGB">
<feFlood flood-opacity="0" result="BackgroundImageFix"/>
<feColorMatrix in="SourceAlpha" type="matrix" values="0 0 0 0 0 0 0 0 0 0 0 0 0 0 0 0 0 0 127 0" result="hardAlpha"/>
<feOffset dx="4" dy="-11"/>
<feGaussianBlur stdDeviation="3.5"/>
<feComposite in2="hardAlpha" operator="out"/>
<feColorMatrix type="matrix" values="0 0 0 0 0 0 0 0 0 0 0 0 0 0 0 0 0 0 0.2 0"/>
<feBlend mode="normal" in2="BackgroundImageFix" result="effect1_dropShadow_3_28"/>
<feBlend mode="normal" in="SourceGraphic" in2="effect1_dropShadow_3_28" result="shape"/>
</filter>
<clipPath id="clip0_3_28">
<rect width="1195.51" height="211.014" fill="white" transform="translate(1195.76 211.014) rotate(-180)"/>
</clipPath>
<clipPath id="clip1_3_28">
<rect width="767.324" height="246.018" fill="white" transform="translate(246.261 126.609) rotate(90)"/>
</clipPath>
<clipPath id="clip2_3_28">
<rect width="1195.51" height="223.803" fill="white" transform="translate(0.243713 684.197)"/>
</clipPath>
</defs>
</svg>
