<svg width="1198" height="910" viewBox="0 0 1198 910" fill="none" xmlns="http://www.w3.org/2000/svg">
<g filter="url(#filter0_f_3_28)">
<g clip-path="url(#clip0_3_28)">
<path d="M1 763.2L75.75 811.8L150.5 763.2L225.25 811.8L300 876.6H374.75L449.5 844.2L524.25 779.4L599 876.6L673.75 747L748.5 811.8L823.25 909L898 763.2L972.75 892.8L1047.5 811.8L1122.25 892.8L1197 844.2V909H1122.25H1047.5H972.75H898H823.25H748.5H673.75H599H524.25H449.5H374.75H300H225.25H150.5H75.75H1V763.2Z" fill="#4B4848"/>
</g>
<g clip-path="url(#clip1_3_28)">
<path d="M1196.76 212.014L1111.33 169.811L1025.98 106.507L940.551 43.2027L855.205 22.1013L769.776 127.608L684.429 106.507L599 169.811L513.57 22.1013L428.224 148.71L342.795 85.4055L257.449 22.1013L172.019 127.608L86.6729 43.2027L1.24359 169.811V0.999847H86.6729L172.019 0.999847H257.449H342.795L428.224 0.999847H513.57L599 0.999847H684.429H769.776L855.205 0.999847H940.551H1025.98L1111.33 0.999847H1196.76V212.014Z" fill="#4B4848"/>
</g>
<g clip-path="url(#clip2_3_28)">
<path d="M18.8 128L54.4 175.938L161.2 223.875L36.6 271.812L54.4 319.75L90 367.688L143.4 415.625L179 463.562L54.4 511.5L72.2 559.438L179 607.375L161.2 655.312L90 703.25L36.6 751.188L72.2 799.125L107.8 847.062L18.8 895H1V847.062V799.125L1 751.188V703.25V655.312V607.375V559.438V511.5V463.562V415.625V367.688L1 319.75V271.812V223.875V175.938V128H18.8Z" fill="#4B4848"/>
</g>
<path d="M1099.2 895L1164.4 839.125L1180.7 783.25L1066.6 727.375L1180.7 671.5L1034 615.625L1099.2 559.75L1066.6 503.875L1099.2 448L1115.5 392.125L1164.4 336.25L1082.9 280.375V224.5L1066.6 168.625V112.75L1148.1 56.875L1115.5 1H1197V56.875V112.75V168.625V224.5V280.375V336.25V392.125V448V503.875V559.75V615.625V671.5V727.375V783.25V839.125V895H1099.2Z" fill="#4B4848"/>
</g>
<defs>
<filter id="filter0_f_3_28" x="0.243591" y="-0.00012207" width="1197.76" height="910" filterUnits="userSpaceOnUse" color-interpolation-filters="sRGB">
<feFlood flood-opacity="0" result="BackgroundImageFix"/>
<feBlend mode="normal" in="SourceGraphic" in2="BackgroundImageFix" result="shape"/>
<feGaussianBlur stdDeviation="0.5" result="effect1_foregroundBlur_3_28"/>
</filter>
<clipPath id="clip0_3_28">
<rect width="1195.51" height="223.803" fill="white" transform="translate(1.24371 685.197)"/>
</clipPath>
<clipPath id="clip1_3_28">
<rect width="1195.51" height="211.014" fill="white" transform="translate(1196.76 212.014) rotate(-180)"/>
</clipPath>
<clipPath id="clip2_3_28">
<rect width="767.324" height="246.018" fill="white" transform="translate(247.261 127.609) rotate(90)"/>
</clipPath>
</defs>
</svg>
