<?xml version="1.0" standalone="no"?><svg xmlns="http://www.w3.org/2000/svg" viewBox="0 0 1440 320"><path fill="#0099ff" fill-opacity="1" d="M0,64L30,74.7C60,85,120,107,180,144C240,181,300,235,360,224C420,213,480,139,540,133.3C600,128,660,192,720,186.7C780,181,840,107,900,80C960,53,1020,75,1080,69.3C1140,64,1200,32,1260,26.7C1320,21,1380,43,1410,53.3L1440,64L1440,320L1410,320C1380,320,1320,320,1260,320C1200,320,1140,320,1080,320C1020,320,960,320,900,320C840,320,780,320,720,320C660,320,600,320,540,320C480,320,420,320,360,320C300,320,240,320,180,320C120,320,60,320,30,320L0,320Z"></path></svg>